<?xml version="1.0" standalone="no"?>
<!DOCTYPE svg PUBLIC "-//W3C//DTD SVG 20010904//EN" "http://www.w3.org/TR/2001/REC-SVG-20010904/DTD/svg10.dtd">
<!-- Created using Krita: https://krita.org -->
<svg xmlns="http://www.w3.org/2000/svg" 
    xmlns:xlink="http://www.w3.org/1999/xlink"
    xmlns:krita="http://krita.org/namespaces/svg/krita"
    xmlns:sodipodi="http://sodipodi.sourceforge.net/DTD/sodipodi-0.dtd"
    width="140.4pt"
    height="93.6pt"
    viewBox="0 0 140.4 93.6">
<defs/>
<path id="shape0" transform="matrix(0.024 0 0 0.024 0 0)" fill="#b31942" stroke-opacity="0" stroke="#000000" stroke-width="0" stroke-linecap="square" stroke-linejoin="bevel" d="M0 0L7410 0L7410 3900L0 3900" sodipodi:nodetypes="cccc"/><path id="shape1" transform="matrix(0.024 0 0 0.024 0 10.8)" fill="#000000" stroke="#ffffff" stroke-width="300" stroke-linecap="butt" stroke-linejoin="miter" stroke-miterlimit="2" d="M0 0L7410 0M7410 600L0 600M0 1200L7410 1200M7410 1800L0 1800M0 2400L7410 2400M7410 3000L0 3000" sodipodi:nodetypes="cccccccccccc"/><path id="shape2" transform="matrix(0.024 0 0 0.024 0 0)" fill="#0a3161" stroke-opacity="0" stroke="#000000" stroke-width="0" stroke-linecap="square" stroke-linejoin="bevel" d="M0 0L2964 0L2964 2100L0 2100" sodipodi:nodetypes="cccc"/><g id="group0" transform="matrix(0.024 0 0 0.024 0 0)" fill="none">
  <g id="s18" fill="none">
   <g id="s9" fill="none">
    <g id="s5" fill="none">
     <g id="s4" fill="none">
      <path id="s" transform="translate(132.873218, 89.9999999999999)" fill="#ffffff" stroke-opacity="0" stroke="#000000" stroke-width="0" stroke-linecap="square" stroke-linejoin="bevel" d="M114.127 0L184.661 217.082L0 82.918L228.254 82.918L43.5926 217.082Z" sodipodi:nodetypes="cccccc"/>
      <g id="group1" transform="translate(0, 420)" fill="none">
       <path id="s1" transform="translate(132.873218, 89.9999999999998)" fill="#ffffff" stroke-opacity="0" stroke="#000000" stroke-width="0" stroke-linecap="square" stroke-linejoin="bevel" d="M114.127 0L184.661 217.082L0 82.918L228.254 82.918L43.5926 217.082Z" sodipodi:nodetypes="cccccc"/>
      </g>
      <g id="group2" transform="translate(0, 840)" fill="none">
       <path id="s2" transform="translate(132.873218, 89.9999999999998)" fill="#ffffff" stroke-opacity="0" stroke="#000000" stroke-width="0" stroke-linecap="square" stroke-linejoin="bevel" d="M114.127 0L184.661 217.082L0 82.918L228.254 82.918L43.5926 217.082Z" sodipodi:nodetypes="cccccc"/>
      </g>
      <g id="group3" transform="translate(0, 1260)" fill="none">
       <path id="s3" transform="translate(132.873218, 89.9999999999998)" fill="#ffffff" stroke-opacity="0" stroke="#000000" stroke-width="0" stroke-linecap="square" stroke-linejoin="bevel" d="M114.127 0L184.661 217.082L0 82.918L228.254 82.918L43.5926 217.082Z" sodipodi:nodetypes="cccccc"/>
      </g>
     </g>
     <g id="group4" transform="translate(0, 1680)" fill="none">
      <path id="s4" transform="translate(132.873218, 89.9999999999998)" fill="#ffffff" stroke-opacity="0" stroke="#000000" stroke-width="0" stroke-linecap="square" stroke-linejoin="bevel" d="M114.127 0L184.661 217.082L0 82.918L228.254 82.918L43.5926 217.082Z" sodipodi:nodetypes="cccccc"/>
     </g>
    </g>
    <g id="group5" transform="translate(247, 210)" fill="none">
     <g id="s41" fill="none">
      <path id="s5" transform="translate(132.873218, 90.0000000000002)" fill="#ffffff" stroke-opacity="0" stroke="#000000" stroke-width="0" stroke-linecap="square" stroke-linejoin="bevel" d="M114.127 0L184.661 217.082L0 82.918L228.254 82.918L43.5926 217.082Z" sodipodi:nodetypes="cccccc"/>
      <g id="group6" transform="translate(0, 420)" fill="none">
       <path id="s6" transform="translate(132.873218, 90.0000000000001)" fill="#ffffff" stroke-opacity="0" stroke="#000000" stroke-width="0" stroke-linecap="square" stroke-linejoin="bevel" d="M114.127 0L184.661 217.082L0 82.918L228.254 82.918L43.5926 217.082Z" sodipodi:nodetypes="cccccc"/>
      </g>
      <g id="group7" transform="translate(0, 840)" fill="none">
       <path id="s7" transform="translate(132.873218, 90)" fill="#ffffff" stroke-opacity="0" stroke="#000000" stroke-width="0" stroke-linecap="square" stroke-linejoin="bevel" d="M114.127 0L184.661 217.082L0 82.918L228.254 82.918L43.5926 217.082Z" sodipodi:nodetypes="cccccc"/>
      </g>
      <g id="group8" transform="translate(0, 1260)" fill="none">
       <path id="s8" transform="translate(132.873218, 89.9999999999998)" fill="#ffffff" stroke-opacity="0" stroke="#000000" stroke-width="0" stroke-linecap="square" stroke-linejoin="bevel" d="M114.127 0L184.661 217.082L0 82.918L228.254 82.918L43.5926 217.082Z" sodipodi:nodetypes="cccccc"/>
      </g>
     </g>
    </g>
   </g>
   <g id="group9" transform="translate(494, 0)" fill="none">
    <g id="s91" fill="none">
     <g id="s51" fill="none">
      <g id="s42" fill="none">
       <path id="s9" transform="translate(132.873218, 89.9999999999999)" fill="#ffffff" stroke-opacity="0" stroke="#000000" stroke-width="0" stroke-linecap="square" stroke-linejoin="bevel" d="M114.127 0L184.661 217.082L0 82.918L228.254 82.918L43.5926 217.082Z" sodipodi:nodetypes="cccccc"/>
       <g id="group10" transform="translate(0, 420)" fill="none">
        <path id="s10" transform="translate(132.873218, 89.9999999999998)" fill="#ffffff" stroke-opacity="0" stroke="#000000" stroke-width="0" stroke-linecap="square" stroke-linejoin="bevel" d="M114.127 0L184.661 217.082L0 82.918L228.254 82.918L43.5926 217.082Z" sodipodi:nodetypes="cccccc"/>
       </g>
       <g id="group11" transform="translate(0, 840)" fill="none">
        <path id="s11" transform="translate(132.873218, 89.9999999999998)" fill="#ffffff" stroke-opacity="0" stroke="#000000" stroke-width="0" stroke-linecap="square" stroke-linejoin="bevel" d="M114.127 0L184.661 217.082L0 82.918L228.254 82.918L43.5926 217.082Z" sodipodi:nodetypes="cccccc"/>
       </g>
       <g id="group12" transform="translate(0, 1260)" fill="none">
        <path id="s12" transform="translate(132.873218, 89.9999999999998)" fill="#ffffff" stroke-opacity="0" stroke="#000000" stroke-width="0" stroke-linecap="square" stroke-linejoin="bevel" d="M114.127 0L184.661 217.082L0 82.918L228.254 82.918L43.5926 217.082Z" sodipodi:nodetypes="cccccc"/>
       </g>
      </g>
      <g id="group13" transform="translate(0, 1680)" fill="none">
       <path id="s13" transform="translate(132.873218, 89.9999999999998)" fill="#ffffff" stroke-opacity="0" stroke="#000000" stroke-width="0" stroke-linecap="square" stroke-linejoin="bevel" d="M114.127 0L184.661 217.082L0 82.918L228.254 82.918L43.5926 217.082Z" sodipodi:nodetypes="cccccc"/>
      </g>
     </g>
     <g id="group14" transform="translate(247, 210)" fill="none">
      <g id="s43" fill="none">
       <path id="s14" transform="translate(132.873218, 90.0000000000002)" fill="#ffffff" stroke-opacity="0" stroke="#000000" stroke-width="0" stroke-linecap="square" stroke-linejoin="bevel" d="M114.127 0L184.661 217.082L0 82.918L228.254 82.918L43.5926 217.082Z" sodipodi:nodetypes="cccccc"/>
       <g id="group15" transform="translate(0, 420)" fill="none">
        <path id="s15" transform="translate(132.873218, 90.0000000000001)" fill="#ffffff" stroke-opacity="0" stroke="#000000" stroke-width="0" stroke-linecap="square" stroke-linejoin="bevel" d="M114.127 0L184.661 217.082L0 82.918L228.254 82.918L43.5926 217.082Z" sodipodi:nodetypes="cccccc"/>
       </g>
       <g id="group16" transform="translate(0, 840)" fill="none">
        <path id="s16" transform="translate(132.873218, 90)" fill="#ffffff" stroke-opacity="0" stroke="#000000" stroke-width="0" stroke-linecap="square" stroke-linejoin="bevel" d="M114.127 0L184.661 217.082L0 82.918L228.254 82.918L43.5926 217.082Z" sodipodi:nodetypes="cccccc"/>
       </g>
       <g id="group17" transform="translate(0, 1260)" fill="none">
        <path id="s17" transform="translate(132.873218, 89.9999999999998)" fill="#ffffff" stroke-opacity="0" stroke="#000000" stroke-width="0" stroke-linecap="square" stroke-linejoin="bevel" d="M114.127 0L184.661 217.082L0 82.918L228.254 82.918L43.5926 217.082Z" sodipodi:nodetypes="cccccc"/>
       </g>
      </g>
     </g>
    </g>
   </g>
  </g>
  <g id="group18" transform="translate(988, 0)" fill="none">
   <g id="s181" fill="none">
    <g id="s92" fill="none">
     <g id="s52" fill="none">
      <g id="s44" fill="none">
       <path id="s18" transform="translate(132.873218, 89.9999999999999)" fill="#ffffff" stroke-opacity="0" stroke="#000000" stroke-width="0" stroke-linecap="square" stroke-linejoin="bevel" d="M114.127 0L184.661 217.082L0 82.918L228.254 82.918L43.5926 217.082Z" sodipodi:nodetypes="cccccc"/>
       <g id="group19" transform="translate(0, 420)" fill="none">
        <path id="s19" transform="translate(132.873218, 89.9999999999998)" fill="#ffffff" stroke-opacity="0" stroke="#000000" stroke-width="0" stroke-linecap="square" stroke-linejoin="bevel" d="M114.127 0L184.661 217.082L0 82.918L228.254 82.918L43.5926 217.082Z" sodipodi:nodetypes="cccccc"/>
       </g>
       <g id="group20" transform="translate(0, 840)" fill="none">
        <path id="s20" transform="translate(132.873218, 89.9999999999998)" fill="#ffffff" stroke-opacity="0" stroke="#000000" stroke-width="0" stroke-linecap="square" stroke-linejoin="bevel" d="M114.127 0L184.661 217.082L0 82.918L228.254 82.918L43.5926 217.082Z" sodipodi:nodetypes="cccccc"/>
       </g>
       <g id="group21" transform="translate(0, 1260)" fill="none">
        <path id="s21" transform="translate(132.873218, 89.9999999999998)" fill="#ffffff" stroke-opacity="0" stroke="#000000" stroke-width="0" stroke-linecap="square" stroke-linejoin="bevel" d="M114.127 0L184.661 217.082L0 82.918L228.254 82.918L43.5926 217.082Z" sodipodi:nodetypes="cccccc"/>
       </g>
      </g>
      <g id="group22" transform="translate(0, 1680)" fill="none">
       <path id="s22" transform="translate(132.873218, 89.9999999999998)" fill="#ffffff" stroke-opacity="0" stroke="#000000" stroke-width="0" stroke-linecap="square" stroke-linejoin="bevel" d="M114.127 0L184.661 217.082L0 82.918L228.254 82.918L43.5926 217.082Z" sodipodi:nodetypes="cccccc"/>
      </g>
     </g>
     <g id="group23" transform="translate(247, 210)" fill="none">
      <g id="s45" fill="none">
       <path id="s23" transform="translate(132.873218, 90.0000000000002)" fill="#ffffff" stroke-opacity="0" stroke="#000000" stroke-width="0" stroke-linecap="square" stroke-linejoin="bevel" d="M114.127 0L184.661 217.082L0 82.918L228.254 82.918L43.5926 217.082Z" sodipodi:nodetypes="cccccc"/>
       <g id="group24" transform="translate(3.5527136788005e-15, 420)" fill="none">
        <path id="s24" transform="translate(132.873218, 90.0000000000001)" fill="#ffffff" stroke-opacity="0" stroke="#000000" stroke-width="0" stroke-linecap="square" stroke-linejoin="bevel" d="M114.127 0L184.661 217.082L0 82.918L228.254 82.918L43.5926 217.082Z" sodipodi:nodetypes="cccccc"/>
       </g>
       <g id="group25" transform="translate(3.5527136788005e-15, 840)" fill="none">
        <path id="s25" transform="translate(132.873218, 90)" fill="#ffffff" stroke-opacity="0" stroke="#000000" stroke-width="0" stroke-linecap="square" stroke-linejoin="bevel" d="M114.127 0L184.661 217.082L0 82.918L228.254 82.918L43.5926 217.082Z" sodipodi:nodetypes="cccccc"/>
       </g>
       <g id="group26" transform="translate(3.5527136788005e-15, 1260)" fill="none">
        <path id="s26" transform="translate(132.873218, 89.9999999999998)" fill="#ffffff" stroke-opacity="0" stroke="#000000" stroke-width="0" stroke-linecap="square" stroke-linejoin="bevel" d="M114.127 0L184.661 217.082L0 82.918L228.254 82.918L43.5926 217.082Z" sodipodi:nodetypes="cccccc"/>
       </g>
      </g>
     </g>
    </g>
    <g id="group27" transform="translate(494, 0)" fill="none">
     <g id="s93" fill="none">
      <g id="s53" fill="none">
       <g id="s46" fill="none">
        <path id="s27" transform="translate(132.873218, 89.9999999999999)" fill="#ffffff" stroke-opacity="0" stroke="#000000" stroke-width="0" stroke-linecap="square" stroke-linejoin="bevel" d="M114.127 0L184.661 217.082L0 82.918L228.254 82.918L43.5926 217.082Z" sodipodi:nodetypes="cccccc"/>
        <g id="group28" transform="translate(0, 420)" fill="none">
         <path id="s28" transform="translate(132.873218, 89.9999999999998)" fill="#ffffff" stroke-opacity="0" stroke="#000000" stroke-width="0" stroke-linecap="square" stroke-linejoin="bevel" d="M114.127 0L184.661 217.082L0 82.918L228.254 82.918L43.5926 217.082Z" sodipodi:nodetypes="cccccc"/>
        </g>
        <g id="group29" transform="translate(0, 840)" fill="none">
         <path id="s29" transform="translate(132.873218, 89.9999999999998)" fill="#ffffff" stroke-opacity="0" stroke="#000000" stroke-width="0" stroke-linecap="square" stroke-linejoin="bevel" d="M114.127 0L184.661 217.082L0 82.918L228.254 82.918L43.5926 217.082Z" sodipodi:nodetypes="cccccc"/>
        </g>
        <g id="group30" transform="translate(0, 1260)" fill="none">
         <path id="s30" transform="translate(132.873218, 89.9999999999998)" fill="#ffffff" stroke-opacity="0" stroke="#000000" stroke-width="0" stroke-linecap="square" stroke-linejoin="bevel" d="M114.127 0L184.661 217.082L0 82.918L228.254 82.918L43.5926 217.082Z" sodipodi:nodetypes="cccccc"/>
        </g>
       </g>
       <g id="group31" transform="translate(0, 1680)" fill="none">
        <path id="s31" transform="translate(132.873218, 89.9999999999998)" fill="#ffffff" stroke-opacity="0" stroke="#000000" stroke-width="0" stroke-linecap="square" stroke-linejoin="bevel" d="M114.127 0L184.661 217.082L0 82.918L228.254 82.918L43.5926 217.082Z" sodipodi:nodetypes="cccccc"/>
       </g>
      </g>
      <g id="group32" transform="translate(247, 210)" fill="none">
       <g id="s47" fill="none">
        <path id="s32" transform="translate(132.873218, 90.0000000000002)" fill="#ffffff" stroke-opacity="0" stroke="#000000" stroke-width="0" stroke-linecap="square" stroke-linejoin="bevel" d="M114.127 0L184.661 217.082L0 82.918L228.254 82.918L43.5926 217.082Z" sodipodi:nodetypes="cccccc"/>
        <g id="group33" transform="translate(0, 420)" fill="none">
         <path id="s33" transform="translate(132.873218, 90.0000000000001)" fill="#ffffff" stroke-opacity="0" stroke="#000000" stroke-width="0" stroke-linecap="square" stroke-linejoin="bevel" d="M114.127 0L184.661 217.082L0 82.918L228.254 82.918L43.5926 217.082Z" sodipodi:nodetypes="cccccc"/>
        </g>
        <g id="group34" transform="translate(0, 840)" fill="none">
         <path id="s34" transform="translate(132.873218, 90)" fill="#ffffff" stroke-opacity="0" stroke="#000000" stroke-width="0" stroke-linecap="square" stroke-linejoin="bevel" d="M114.127 0L184.661 217.082L0 82.918L228.254 82.918L43.5926 217.082Z" sodipodi:nodetypes="cccccc"/>
        </g>
        <g id="group35" transform="translate(0, 1260)" fill="none">
         <path id="s35" transform="translate(132.873218, 89.9999999999998)" fill="#ffffff" stroke-opacity="0" stroke="#000000" stroke-width="0" stroke-linecap="square" stroke-linejoin="bevel" d="M114.127 0L184.661 217.082L0 82.918L228.254 82.918L43.5926 217.082Z" sodipodi:nodetypes="cccccc"/>
        </g>
       </g>
      </g>
     </g>
    </g>
   </g>
  </g>
  <g id="group36" transform="translate(1976, 0)" fill="none">
   <g id="s94" fill="none">
    <g id="s54" fill="none">
     <g id="s48" fill="none">
      <path id="s36" transform="translate(132.873218, 89.9999999999999)" fill="#ffffff" stroke-opacity="0" stroke="#000000" stroke-width="0" stroke-linecap="square" stroke-linejoin="bevel" d="M114.127 0L184.661 217.082L0 82.918L228.254 82.918L43.5926 217.082Z" sodipodi:nodetypes="cccccc"/>
      <g id="group37" transform="translate(0, 420)" fill="none">
       <path id="s37" transform="translate(132.873218, 89.9999999999998)" fill="#ffffff" stroke-opacity="0" stroke="#000000" stroke-width="0" stroke-linecap="square" stroke-linejoin="bevel" d="M114.127 0L184.661 217.082L0 82.918L228.254 82.918L43.5926 217.082Z" sodipodi:nodetypes="cccccc"/>
      </g>
      <g id="group38" transform="translate(0, 840)" fill="none">
       <path id="s38" transform="translate(132.873218, 89.9999999999998)" fill="#ffffff" stroke-opacity="0" stroke="#000000" stroke-width="0" stroke-linecap="square" stroke-linejoin="bevel" d="M114.127 0L184.661 217.082L0 82.918L228.254 82.918L43.5926 217.082Z" sodipodi:nodetypes="cccccc"/>
      </g>
      <g id="group39" transform="translate(0, 1260)" fill="none">
       <path id="s39" transform="translate(132.873218, 89.9999999999998)" fill="#ffffff" stroke-opacity="0" stroke="#000000" stroke-width="0" stroke-linecap="square" stroke-linejoin="bevel" d="M114.127 0L184.661 217.082L0 82.918L228.254 82.918L43.5926 217.082Z" sodipodi:nodetypes="cccccc"/>
      </g>
     </g>
     <g id="group40" transform="translate(0, 1680)" fill="none">
      <path id="s40" transform="translate(132.873218, 89.9999999999998)" fill="#ffffff" stroke-opacity="0" stroke="#000000" stroke-width="0" stroke-linecap="square" stroke-linejoin="bevel" d="M114.127 0L184.661 217.082L0 82.918L228.254 82.918L43.5926 217.082Z" sodipodi:nodetypes="cccccc"/>
     </g>
    </g>
    <g id="group41" transform="translate(247, 210)" fill="none">
     <g id="s49" fill="none">
      <path id="s41" transform="translate(132.873218, 90.0000000000002)" fill="#ffffff" stroke-opacity="0" stroke="#000000" stroke-width="0" stroke-linecap="square" stroke-linejoin="bevel" d="M114.127 0L184.661 217.082L0 82.918L228.254 82.918L43.5926 217.082Z" sodipodi:nodetypes="cccccc"/>
      <g id="group42" transform="translate(-7.105427357601e-15, 420)" fill="none">
       <path id="s42" transform="translate(132.873218, 90.0000000000001)" fill="#ffffff" stroke-opacity="0" stroke="#000000" stroke-width="0" stroke-linecap="square" stroke-linejoin="bevel" d="M114.127 0L184.661 217.082L0 82.918L228.254 82.918L43.5926 217.082Z" sodipodi:nodetypes="cccccc"/>
      </g>
      <g id="group43" transform="translate(-7.105427357601e-15, 840)" fill="none">
       <path id="s43" transform="translate(132.873218, 90)" fill="#ffffff" stroke-opacity="0" stroke="#000000" stroke-width="0" stroke-linecap="square" stroke-linejoin="bevel" d="M114.127 0L184.661 217.082L0 82.918L228.254 82.918L43.5926 217.082Z" sodipodi:nodetypes="cccccc"/>
      </g>
      <g id="group44" transform="translate(-7.105427357601e-15, 1260)" fill="none">
       <path id="s44" transform="translate(132.873218, 89.9999999999998)" fill="#ffffff" stroke-opacity="0" stroke="#000000" stroke-width="0" stroke-linecap="square" stroke-linejoin="bevel" d="M114.127 0L184.661 217.082L0 82.918L228.254 82.918L43.5926 217.082Z" sodipodi:nodetypes="cccccc"/>
      </g>
     </g>
    </g>
   </g>
  </g>
  <g id="group45" transform="translate(2470, 0)" fill="none">
   <g id="s55" fill="none">
    <g id="s410" fill="none">
     <path id="s45" transform="translate(132.873218, 89.9999999999999)" fill="#ffffff" stroke-opacity="0" stroke="#000000" stroke-width="0" stroke-linecap="square" stroke-linejoin="bevel" d="M114.127 0L184.661 217.082L0 82.918L228.254 82.918L43.5926 217.082Z" sodipodi:nodetypes="cccccc"/>
     <g id="group46" transform="translate(0, 420)" fill="none">
      <path id="s46" transform="translate(132.873218, 89.9999999999998)" fill="#ffffff" stroke-opacity="0" stroke="#000000" stroke-width="0" stroke-linecap="square" stroke-linejoin="bevel" d="M114.127 0L184.661 217.082L0 82.918L228.254 82.918L43.5926 217.082Z" sodipodi:nodetypes="cccccc"/>
     </g>
     <g id="group47" transform="translate(0, 840)" fill="none">
      <path id="s47" transform="translate(132.873218, 89.9999999999998)" fill="#ffffff" stroke-opacity="0" stroke="#000000" stroke-width="0" stroke-linecap="square" stroke-linejoin="bevel" d="M114.127 0L184.661 217.082L0 82.918L228.254 82.918L43.5926 217.082Z" sodipodi:nodetypes="cccccc"/>
     </g>
     <g id="group48" transform="translate(0, 1260)" fill="none">
      <path id="s48" transform="translate(132.873218, 89.9999999999998)" fill="#ffffff" stroke-opacity="0" stroke="#000000" stroke-width="0" stroke-linecap="square" stroke-linejoin="bevel" d="M114.127 0L184.661 217.082L0 82.918L228.254 82.918L43.5926 217.082Z" sodipodi:nodetypes="cccccc"/>
     </g>
    </g>
    <g id="group49" transform="translate(0, 1680)" fill="none">
     <path id="s49" transform="translate(132.873218, 89.9999999999998)" fill="#ffffff" stroke-opacity="0" stroke="#000000" stroke-width="0" stroke-linecap="square" stroke-linejoin="bevel" d="M114.127 0L184.661 217.082L0 82.918L228.254 82.918L43.5926 217.082Z" sodipodi:nodetypes="cccccc"/>
    </g>
   </g>
  </g>
 </g>
</svg>
